Coordinates
version=1
nRows=17
nColumns=40
inDegrees=yes

Units are S.I. units (second, meters, Newtons, ...)
If the header above contains a line with 'inDegrees', this indicates whether rotational values are in degrees (yes) or radians (no).

endheader
time	pelvis_tilt	pelvis_list	pelvis_rotation	pelvis_tx	pelvis_ty	pelvis_tz	hip_flexion_r	hip_adduction_r	hip_rotation_r	knee_angle_r	knee_angle_r_beta	ankle_angle_r	subtalar_angle_r	mtp_angle_r	hip_flexion_l	hip_adduction_l	hip_rotation_l	knee_angle_l	knee_angle_l_beta	ankle_angle_l	subtalar_angle_l	mtp_angle_l	lumbar_extension	lumbar_bending	lumbar_rotation	arm_flex_r	arm_add_r	arm_rot_r	elbow_flex_r	pro_sup_r	wrist_flex_r	wrist_dev_r	arm_flex_l	arm_add_l	arm_rot_l	elbow_flex_l	pro_sup_l	wrist_flex_l	wrist_dev_l
      1.40000000	      4.78514246	      0.07142205	     -1.26804724	     -0.27099184	      1.06294507	     -0.97608780	     10.35299223	     -7.20315516	      4.87556028	     13.41011884	      0.23405073	     -3.09604347	      0.00000000	      0.00000000	      0.52987068	      1.78807880	     -3.41358766	     12.61592654	      0.22018946	     -3.69486184	      0.00000000	      0.00000000	     -8.10279113	     -4.19681720	     -3.45385737	     89.36523908	     -6.18204993	     65.52892731	     44.43529114	     83.45546613	      0.00000000	      0.00000000	     89.81667011	    -15.27845386	     66.62714800	     47.39771835	     87.46563994	      0.00000000	      0.00000000
      1.40500000	      4.76631616	      0.05184117	     -1.30087442	     -0.27119862	      1.06281014	     -0.97627562	     10.51764989	     -7.13272035	      4.86277468	     13.21765982	      0.23069168	     -3.03626074	      0.00000000	      0.00000000	      0.64592942	      1.77382387	     -3.50230221	     12.78754996	      0.22318485	     -3.55819133	      0.00000000	      0.00000000	     -8.11206542	     -4.19240457	     -3.49587541	     89.37780980	     -6.07974716	     65.49194156	     44.38196884	     83.42860785	      0.00000000	      0.00000000	     89.81685159	    -15.43269670	     66.61195662	     47.57144286	     87.46893905	      0.00000000	      0.00000000
      1.41000000	      4.74816170	     -0.00112949	     -1.23069918	     -0.27148100	      1.06270519	     -0.97657538	     10.67285433	     -7.05754579	      4.67807627	     13.07141564	      0.22813924	     -2.98517267	      0.00000000	      0.00000000	      0.74529505	      1.73274569	     -3.29949696	     12.91524290	      0.22541351	     -3.47839855	      0.00000000	      0.00000000	     -8.11416190	     -4.13823121	     -3.54111019	     89.37274706	     -6.09482808	     65.49257160	     44.39122915	     83.14297498	      0.00000000	      0.00000000	     89.81775611	    -15.38704310	     66.56485458	     47.48779945	     87.49922701	      0.00000000	      0.00000000
      1.41500000	      4.70533910	     -0.01956254	     -1.34218349	     -0.27170961	      1.06252918	     -0.97665429	     10.86898126	     -6.97985686	      4.73928241	     12.87688456	      0.22474403	     -2.92055029	      0.00000000	      0.00000000	      0.92374727	      1.70929055	     -3.67692187	     13.18005920	      0.23003543	     -3.32844950	      0.00000000	      0.00000000	     -8.08328434	     -4.16205838	     -3.43309308	     89.39078689	     -6.07008480	     65.51372690	     44.33352487	     83.16138557	      0.00000000	      0.00000000	     89.81743386	    -15.36457399	     66.53904611	     47.46385135	     87.50661228	      0.00000000	      0.00000000
      1.42000000	      4.72641763	     -0.02068841	     -1.30796956	     -0.27190986	      1.06242566	     -0.97698179	     10.93739628	     -6.96126648	      4.78032362	     12.62653813	      0.22037466	     -2.95222990	      0.00000000	      0.00000000	      0.95774627	      1.72575459	     -3.52375324	     13.25935500	      0.23141940	     -3.50184764	      0.00000000	      0.00000000	     -8.12678919	     -4.15417591	     -3.48359355	     89.37524433	     -6.04658771	     65.33486573	     44.36520676	     83.22494598	      0.00000000	      0.00000000	     89.81807004	    -15.41315308	     66.54707741	     47.50977509	     87.48316725	      0.00000000	      0.00000000
      1.42500000	      4.74357658	     -0.10005364	     -1.31569069	     -0.27212860	      1.06237991	     -0.97717267	     11.06866459	     -6.82715384	      4.68598816	     12.48937094	      0.21798064	     -2.93333014	      0.00000000	      0.00000000	      1.05601359	      1.64615535	     -3.56953574	     13.49123359	      0.23546645	     -3.21145073	      0.00000000	      0.00000000	     -8.17151172	     -4.08169857	     -3.49571222	     89.38193312	     -6.01957005	     65.29284277	     44.39149156	     83.42450356	      0.00000000	      0.00000000	     89.81707571	    -15.46897105	     66.51033322	     47.56289819	     87.46717900	      0.00000000	      0.00000000
      1.43000000	      4.74667949	     -0.16823928	     -1.32479985	     -0.27226856	      1.06228361	     -0.97742671	     11.16546733	     -6.71411023	      4.60452364	     12.27206385	      0.21418792	     -2.93922672	      0.00000000	      0.00000000	      1.13147385	      1.58772593	     -3.61386451	     13.64289332	      0.23811341	     -3.11688048	      0.00000000	      0.00000000	     -8.18616407	     -4.01872424	     -3.48421762	     89.38326979	     -6.04345866	     65.33503958	     44.49709628	     83.07767583	      0.00000000	      0.00000000	     89.81683918	    -15.44760143	     66.44107872	     47.48758299	     87.51861914	      0.00000000	      0.00000000
      1.43500000	      4.71886345	     -0.19497820	     -1.33080061	     -0.27257801	      1.06216218	     -0.97767223	     11.31200985	     -6.63827776	      4.67051936	     12.05108449	      0.21033110	     -2.99673962	      0.00000000	      0.00000000	      1.31403281	      1.55833914	     -3.59669511	     13.93860011	      0.24327447	     -3.06066975	      0.00000000	      0.00000000	     -8.19531956	     -3.99500589	     -3.51767610	     89.38176355	     -6.00173771	     65.22201362	     44.50156054	     83.49917414	      0.00000000	      0.00000000	     89.81707799	    -15.56570021	     66.37860896	     47.67053769	     87.46943569	      0.00000000	      0.00000000
      1.44000000	      4.70042830	     -0.23305998	     -1.32881544	     -0.27272153	      1.06198941	     -0.97790673	     11.44968576	     -6.55479531	      4.55263108	     11.87066050	      0.20718211	     -2.88998131	      0.00000000	      0.00000000	      1.42960591	      1.52782169	     -3.63630360	     14.11751399	      0.24639710	     -2.97633389	      0.00000000	      0.00000000	     -8.17846356	     -3.95826261	     -3.50110717	     89.38959759	     -5.98375966	     65.28713245	     44.41599696	     83.44795101	      0.00000000	      0.00000000	     89.81603140	    -15.55042212	     66.41764812	     47.64477330	     87.45564075	      0.00000000	      0.00000000
      1.44500000	      4.65746238	     -0.28202685	     -1.34590738	     -0.27294965	      1.06183744	     -0.97811091	     11.59639232	     -6.45919264	      4.58794002	     11.63189129	      0.20301480	     -2.94163782	      0.00000000	      0.00000000	      1.58910375	      1.47364177	     -3.71791936	     14.31916474	      0.24991657	     -2.95152559	      0.00000000	      0.00000000	     -8.15556729	     -3.91576365	     -3.51322614	     89.38773110	     -5.97677241	     65.28482242	     44.49293267	     83.09529638	      0.00000000	      0.00000000	     89.81593086	    -15.59668642	     66.36430137	     47.66021318	     87.49614973	      0.00000000	      0.00000000
      1.45000000	      4.68478362	     -0.32345103	     -1.35841936	     -0.27314405	      1.06174886	     -0.97836951	     11.62103685	     -6.36342948	      4.71145141	     11.34175607	      0.19795099	     -2.86785809	      0.00000000	      0.00000000	      1.63916844	      1.44736168	     -3.65480490	     14.46490117	      0.25246015	     -2.74455091	      0.00000000	      0.00000000	     -8.20634334	     -3.87947152	     -3.47585298	     89.38634479	     -6.03111089	     65.28639620	     44.55483289	     83.26064076	      0.00000000	      0.00000000	     89.81613859	    -15.58884221	     66.40498605	     47.67330136	     87.49147816	      0.00000000	      0.00000000
      1.45500000	      4.70153777	     -0.33269319	     -1.39990444	     -0.27339296	      1.06167428	     -0.97857656	     11.71264759	     -6.29272013	      4.83307866	     11.16884311	      0.19493309	     -2.95580007	      0.00000000	      0.00000000	      1.70686194	      1.45016891	     -3.64194525	     14.60730480	      0.25494556	     -2.69345513	      0.00000000	      0.00000000	     -8.25140888	     -3.85731659	     -3.50490705	     89.39478433	     -5.89190549	     65.41014483	     44.41632736	     83.52694269	      0.00000000	      0.00000000	     89.81600757	    -15.74703729	     66.39760550	     47.81623149	     87.47022692	      0.00000000	      0.00000000
      1.46000000	      4.74337952	     -0.41917841	     -1.37796331	     -0.27360648	      1.06164251	     -0.97883216	     11.74937993	     -6.15945384	      4.73976913	     10.91318245	      0.19047097	     -2.95094997	      0.00000000	      0.00000000	      1.76523862	      1.36354509	     -3.61364307	     14.79579918	      0.25823541	     -2.61677673	      0.00000000	      0.00000000	     -8.32247879	     -3.75571906	     -3.53553721	     89.39816448	     -5.90418843	     65.43011535	     44.52797471	     83.06156725	      0.00000000	      0.00000000	     89.81542553	    -15.82243603	     66.36663929	     47.89796069	     87.49509019	      0.00000000	      0.00000000
      1.46500000	      4.71948814	     -0.43383821	     -1.41287820	     -0.27381801	      1.06145341	     -0.97908946	     11.86679389	     -6.09498960	      4.77284186	     10.69241166	      0.18661779	     -2.96122800	      0.00000000	      0.00000000	      1.91077512	      1.35030776	     -3.74077154	     15.04379226	      0.26256371	     -2.47838530	      0.00000000	      0.00000000	     -8.30003826	     -3.73816398	     -3.49452701	     89.38872467	     -5.87865311	     65.28327303	     44.53554401	     83.39372544	      0.00000000	      0.00000000	     89.81720130	    -15.81797723	     66.46014361	     47.84652695	     87.46308740	      0.00000000	      0.00000000
      1.47000000	      4.67425466	     -0.44971822	     -1.38726362	     -0.27394971	      1.06132013	     -0.97943877	     11.98117647	     -6.04439109	      4.74506551	     10.42250794	      0.18190708	     -3.01683815	      0.00000000	      0.00000000	      2.02643250	      1.35655224	     -3.60025229	     15.16497868	      0.26467881	     -2.29379920	      0.00000000	      0.00000000	     -8.27117836	     -3.71510408	     -3.48885506	     89.39981844	     -5.95512547	     65.44790019	     44.67174984	     82.54127750	      0.00000000	      0.00000000	     89.81124257	    -15.77186094	     66.47943308	     47.75593034	     87.55056622	      0.00000000	      0.00000000
      1.47500000	      4.76982845	     -0.49921136	     -1.41932423	     -0.27403752	      1.06131509	     -0.97963736	     11.92613764	     -5.93351556	      4.72293778	     10.13672672	      0.17691926	     -3.06250336	      0.00000000	      0.00000000	      1.99703080	      1.30810702	     -3.69335266	     15.31665708	      0.26732610	     -2.29802215	      0.00000000	      0.00000000	     -8.37942816	     -3.64435049	     -3.51945680	     89.37424786	     -5.82443351	     65.22730853	     44.58188924	     83.52731493	      0.00000000	      0.00000000	     89.81542271	    -15.94535908	     66.53000898	     47.93039334	     87.45819127	      0.00000000	      0.00000000
      1.48000000	      4.87362174	     -0.51426606	     -1.40186948	     -0.27424013	      1.06135078	     -0.97990884	     11.83856678	     -5.86808548	      4.83295626	      9.81090898	      0.17123266	     -3.09062959	      0.00000000	      0.00000000	      1.97140071	      1.30820245	     -3.65292163	     15.44423387	      0.26955273	     -2.40162583	      0.00000000	      0.00000000	     -8.51098636	     -3.61974830	     -3.53378754	     89.37819855	     -5.82183859	     65.21296768	     44.60675801	     83.58052243	      0.00000000	      0.00000000	     89.81543922	    -15.96177461	     66.48851219	     47.94258383	     87.44774730	      0.00000000	      0.00000000
